<svg width="371" height="242" viewBox="0 0 371 242" fill="none" xmlns="http://www.w3.org/2000/svg">
<rect width="371" height="242" fill="white"/>
<path fill-rule="evenodd" clip-rule="evenodd" d="M72.4715 129.61C61.1654 136.391 57.4971 151.053 64.2782 162.359C71.0593 173.666 85.7218 177.334 97.0279 170.553L149.137 139.299C160.443 132.518 164.112 117.856 157.331 106.549C150.549 95.2434 135.887 91.5751 124.581 98.3562L72.4715 129.61ZM77.0193 135.317C69.1393 140.043 66.5826 150.263 71.3088 158.143C76.035 166.023 86.2543 168.579 94.1343 163.853L144.589 133.592C152.469 128.866 155.026 118.646 150.3 110.766C145.574 102.886 135.354 100.329 127.474 105.056L77.0193 135.317Z" fill="#C4C4C4"/>
<path d="M140.356 116.578C139.33 114.354 140.301 111.718 142.525 110.692L169.709 98.1498C171.272 97.4285 172.798 99.2131 171.844 100.646L171.684 100.885C171.027 101.871 171.683 103.198 172.865 103.276V103.276C174.459 103.381 174.86 105.543 173.409 106.212L146.242 118.747C144.018 119.774 141.382 118.802 140.356 116.578V116.578Z" fill="#646464"/>
<path fill-rule="evenodd" clip-rule="evenodd" d="M299.528 129.61C310.835 136.391 314.503 151.053 307.722 162.359C300.941 173.666 286.278 177.334 274.972 170.553L222.863 139.299C211.557 132.518 207.888 117.856 214.669 106.549C221.451 95.2434 236.113 91.5751 247.419 98.3562L299.528 129.61ZM294.981 135.317C302.861 140.043 305.417 150.263 300.691 158.143C295.965 166.023 285.746 168.579 277.866 163.853L227.411 133.592C219.531 128.866 216.974 118.646 221.7 110.766C226.426 102.886 236.646 100.329 244.526 105.056L294.981 135.317Z" fill="#C4C4C4"/>
<path d="M231.644 116.578C232.67 114.354 231.699 111.718 229.475 110.692L202.291 98.1498C200.728 97.4285 199.202 99.2131 200.156 100.646L200.316 100.885C200.973 101.871 200.317 103.198 199.135 103.276V103.276C197.541 103.381 197.14 105.543 198.591 106.212L225.758 118.747C227.982 119.774 230.618 118.802 231.644 116.578V116.578Z" fill="#646464"/>
<rect width="3.5397" height="23.2047" transform="matrix(-0.937056 0.34918 0.34918 0.937056 162.203 61.8502)" fill="#C4C4C4"/>
<rect width="3.5397" height="23.2047" transform="matrix(-0.999999 -0.00111265 -0.00111265 0.999999 187.392 59.0039)" fill="#C4C4C4"/>
<rect width="3.5397" height="23.2047" transform="matrix(-0.910334 -0.413875 -0.413875 0.910334 210.904 63.3153)" fill="#C4C4C4"/>
<rect x="162.203" y="151.812" width="3.5397" height="23.2047" transform="rotate(-159.563 162.203 151.812)" fill="#C4C4C4"/>
<rect x="187.392" y="154.659" width="3.5397" height="23.2047" transform="rotate(179.936 187.392 154.659)" fill="#C4C4C4"/>
<rect x="210.904" y="150.347" width="3.5397" height="23.2047" transform="rotate(155.551 210.904 150.347)" fill="#C4C4C4"/>
</svg>
