<svg width="371" height="242" viewBox="0 0 371 242" fill="none" xmlns="http://www.w3.org/2000/svg">
<rect width="371" height="242" fill="white"/>
<path fill-rule="evenodd" clip-rule="evenodd" d="M197.703 53.5C192.7 44.8333 180.19 44.8333 175.187 53.5L119.761 149.5C114.757 158.167 121.012 169 131.019 169H241.871C251.878 169 258.133 158.167 253.129 149.5L197.703 53.5ZM182.358 130.151H189.984L190.623 81H181.765L182.358 130.151ZM182.678 141.581C181.856 142.521 181.445 143.697 181.445 145.108C181.445 146.519 181.856 147.695 182.678 148.636C183.53 149.545 184.778 150 186.422 150C188.066 150 189.314 149.545 190.166 148.636C191.019 147.695 191.445 146.519 191.445 145.108C191.445 143.697 191.019 142.521 190.166 141.581C189.314 140.609 188.066 140.123 186.422 140.123C184.778 140.123 183.53 140.609 182.678 141.581Z" fill="#EE8585"/>
</svg>
