<svg version="1.1" xmlns="http://www.w3.org/2000/svg" viewBox="-250.3679992675781 -1067.0080444335938 6970.368017578125 2616.0640655517577"><desc>Created with Snap</desc><defs></defs><g><g><g transform="matrix(1.024,0,0,-1.024,0,0)"><path d="M122 0L122 700L399 700Q508 700 592 655Q677 610 724 530Q771 451 771 350Q771 249 724 169Q677 90 592 45Q508 0 399 0L122 0ZM173 46L395 46Q492 46 566 84Q640 123 680 192Q720 261 720 350Q720 439 680 508Q640 577 566 615Q492 654 395 654L173 654L173 46ZM932 0L932 522L982 522L982 0L932 0ZM957 649Q940 649 928 660Q916 672 916 689Q916 706 928 718Q940 730 957 730Q974 730 986 718Q998 707 998 690Q998 673 986 661Q974 649 957 649ZM1615 522L1663 522L1663 56Q1663 -74 1600 -136Q1537 -198 1410 -198Q1338 -198 1274 -176Q1210 -154 1171 -115L1198 -77Q1237 -113 1292 -133Q1347 -153 1409 -153Q1513 -153 1563 -104Q1613 -54 1613 50L1613 138Q1581 81 1524 50Q1467 19 1396 19Q1323 19 1263 51Q1204 84 1170 142Q1136 200 1136 273Q1136 346 1170 404Q1204 462 1263 494Q1323 526 1396 526Q1468 526 1526 494Q1584 462 1615 404L1615 522ZM1400 64Q1461 64 1510 90Q1559 117 1586 164Q1614 212 1614 273Q1614 334 1586 381Q1559 428 1510 454Q1461 481 1400 481Q1339 481 1290 454Q1242 428 1214 381Q1187 334 1187 273Q1187 212 1214 164Q1242 117 1290 90Q1339 64 1400 64ZM1875 0L1875 522L1925 522L1925 0L1875 0ZM1900 649Q1883 649 1871 660Q1859 672 1859 689Q1859 706 1871 718Q1883 730 1900 730Q1917 730 1929 718Q1941 707 1941 690Q1941 673 1929 661Q1917 649 1900 649ZM2374 68L2395 33Q2376 15 2347 5Q2319 -4 2288 -4Q2220 -4 2183 33Q2146 71 2146 138L2146 479L2050 479L2050 522L2146 522L2146 636L2196 636L2196 522L2362 522L2362 479L2196 479L2196 143Q2196 92 2220 65Q2245 39 2293 39Q2342 39 2374 68ZM2710 526Q2807 526 2859 476Q2911 427 2911 331L2911 0L2863 0L2863 93Q2838 47 2790 21Q2742 -4 2675 -4Q2588 -4 2537 37Q2487 78 2487 145Q2487 210 2533 250Q2580 291 2682 291L2861 291L2861 333Q2861 406 2821 444Q2782 482 2706 482Q2654 482 2606 464Q2559 446 2526 416L2501 452Q2540 487 2595 506Q2650 526 2710 526ZM2682 37Q2747 37 2792 67Q2838 97 2861 154L2861 252L2683 252Q2606 252 2571 224Q2537 196 2537 147Q2537 96 2575 66Q2613 37 2682 37ZM3117 0L3117 742L3167 742L3167 0L3117 0ZM3862 654L3445 654L3445 355L3818 355L3818 309L3445 309L3445 0L3394 0L3394 700L3862 700L3862 654ZM4159 0L4159 654L3907 654L3907 700L4462 700L4462 654L4210 654L4210 0L4159 0Z" fill="#0560af" style=""></path></g></g><g transform="matrix(0.75,0,0,0.75,0,1070.592)"><g transform="matrix(1.024,0,0,-1.024,0,0)"><path d="M332 0L74 0L74 710L332 710Q419 710 484 682Q550 654 594 606Q638 558 660 493Q682 429 682 356Q682 275 657 209Q633 144 587 97Q541 51 476 25Q412 0 332 0ZM543 356Q543 407 529 450Q515 493 488 524Q461 555 421 572Q382 589 332 589L212 589L212 121L332 121Q383 121 422 139Q462 157 488 188Q515 220 529 263Q543 306 543 356ZM911 0L777 0L777 524L911 524L911 0ZM911 597L777 597L777 730L911 730L911 597ZM1237 -3Q1184 -3 1141 18Q1098 39 1066 75Q1035 112 1018 160Q1001 208 1001 262Q1001 319 1019 368Q1037 417 1069 454Q1101 491 1146 512Q1191 533 1245 533Q1306 533 1352 505Q1398 478 1428 432L1428 524L1545 524L1545 25Q1545 -33 1523 -79Q1501 -125 1462 -157Q1424 -189 1370 -206Q1317 -223 1254 -223Q1168 -223 1109 -195Q1051 -166 1009 -114L1082 -43Q1112 -80 1157 -101Q1203 -122 1254 -122Q1285 -122 1313 -114Q1342 -105 1364 -87Q1386 -69 1398 -41Q1411 -13 1411 25L1411 91Q1385 46 1338 21Q1291 -3 1237 -3ZM1282 104Q1304 104 1324 111Q1344 118 1361 130Q1378 142 1391 158Q1404 174 1411 192L1411 317Q1393 363 1354 391Q1316 419 1274 419Q1243 419 1218 405Q1193 392 1175 369Q1157 347 1147 318Q1138 289 1138 258Q1138 226 1149 198Q1160 170 1179 149Q1199 128 1225 116Q1251 104 1282 104ZM1800 0L1666 0L1666 524L1800 524L1800 0ZM1800 597L1666 597L1666 730L1800 730L1800 597ZM2208 133L2235 27Q2208 15 2169 3Q2130 -9 2087 -9Q2059 -9 2034 -2Q2010 5 1991 20Q1973 36 1962 60Q1951 85 1951 120L1951 421L1882 421L1882 524L1951 524L1951 694L2085 694L2085 524L2195 524L2195 421L2085 421L2085 165Q2085 137 2099 125Q2114 114 2135 114Q2156 114 2176 121Q2196 128 2208 133ZM2448 -10Q2410 -10 2377 2Q2344 15 2320 37Q2296 60 2282 90Q2269 120 2269 156Q2269 193 2285 224Q2302 256 2331 278Q2361 300 2402 312Q2443 325 2492 325Q2527 325 2560 319Q2594 313 2620 302L2620 332Q2620 384 2590 412Q2561 440 2503 440Q2461 440 2421 425Q2381 410 2339 381L2298 466Q2399 533 2516 533Q2629 533 2691 477Q2754 422 2754 317L2754 154Q2754 133 2761 124Q2769 115 2786 114L2786 0Q2752 -7 2727 -7Q2689 -7 2668 10Q2648 27 2643 55L2640 84Q2605 38 2555 14Q2505 -10 2448 -10ZM2486 88Q2520 88 2550 100Q2581 112 2598 132Q2620 149 2620 170L2620 230Q2596 239 2568 244Q2540 250 2514 250Q2462 250 2429 226Q2396 203 2396 167Q2396 133 2422 110Q2448 88 2486 88ZM2878 121L2878 730L3012 730L3012 168Q3012 139 3026 123Q3040 107 3066 107Q3078 107 3092 111Q3107 115 3120 121L3138 19Q3111 6 3075 -1Q3039 -8 3010 -8Q2947 -8 2912 25Q2878 59 2878 121ZM3587 0L3449 0L3449 710L3926 710L3926 589L3587 589L3587 406L3869 406L3869 294L3587 294L3587 0ZM4153 -10Q4115 -10 4082 2Q4049 15 4025 37Q4001 60 3987 90Q3974 120 3974 156Q3974 193 3990 224Q4007 256 4036 278Q4066 300 4107 312Q4148 325 4197 325Q4232 325 4265 319Q4299 313 4325 302L4325 332Q4325 384 4295 412Q4266 440 4208 440Q4166 440 4126 425Q4086 410 4044 381L4003 466Q4104 533 4221 533Q4334 533 4396 477Q4459 422 4459 317L4459 154Q4459 133 4466 124Q4474 115 4491 114L4491 0Q4457 -7 4432 -7Q4394 -7 4373 10Q4353 27 4348 55L4345 84Q4310 38 4260 14Q4210 -10 4153 -10ZM4191 88Q4225 88 4255 100Q4286 112 4303 132Q4325 149 4325 170L4325 230Q4301 239 4273 244Q4245 250 4219 250Q4167 250 4134 226Q4101 203 4101 167Q4101 133 4127 110Q4153 88 4191 88ZM4782 -10Q4716 -10 4653 11Q4590 32 4545 71L4595 155Q4643 121 4688 103Q4734 86 4779 86Q4819 86 4842 101Q4865 116 4865 144Q4865 172 4838 185Q4811 198 4750 215Q4699 229 4663 242Q4627 255 4605 271Q4583 288 4573 309Q4563 331 4563 361Q4563 401 4578 433Q4594 465 4622 487Q4650 510 4687 522Q4725 534 4769 534Q4828 534 4879 517Q4931 500 4974 462L4920 381Q4880 411 4842 425Q4805 439 4768 439Q4734 439 4711 425Q4688 411 4688 380Q4688 366 4693 357Q4699 348 4711 341Q4723 334 4742 327Q4762 321 4791 314Q4845 300 4883 286Q4922 272 4946 254Q4971 236 4982 212Q4994 189 4994 156Q4994 79 4937 34Q4880 -10 4782 -10ZM5368 133L5395 27Q5368 15 5329 3Q5290 -9 5247 -9Q5219 -9 5194 -2Q5170 5 5151 20Q5133 36 5122 60Q5111 85 5111 120L5111 421L5042 421L5042 524L5111 524L5111 694L5245 694L5245 524L5355 524L5355 421L5245 421L5245 165Q5245 137 5259 125Q5274 114 5295 114Q5316 114 5336 121Q5356 128 5368 133ZM6249 710L6249 589L6022 589L6022 0L5885 0L5885 589L5658 589L5658 710L6249 710ZM6636 530L6636 408Q6575 407 6527 384Q6479 362 6458 317L6458 0L6324 0L6324 524L6447 524L6447 412Q6461 439 6480 460Q6499 482 6521 498Q6543 514 6565 522Q6588 531 6609 531Q6620 531 6625 531Q6631 531 6636 530ZM6854 -10Q6816 -10 6783 2Q6750 15 6726 37Q6702 60 6688 90Q6675 120 6675 156Q6675 193 6691 224Q6708 256 6737 278Q6767 300 6808 312Q6849 325 6898 325Q6933 325 6966 319Q7000 313 7026 302L7026 332Q7026 384 6996 412Q6967 440 6909 440Q6867 440 6827 425Q6787 410 6745 381L6704 466Q6805 533 6922 533Q7035 533 7097 477Q7160 422 7160 317L7160 154Q7160 133 7167 124Q7175 115 7192 114L7192 0Q7158 -7 7133 -7Q7095 -7 7074 10Q7054 27 7049 55L7046 84Q7011 38 6961 14Q6911 -10 6854 -10ZM6892 88Q6926 88 6956 100Q6987 112 7004 132Q7026 149 7026 170L7026 230Q7002 239 6974 244Q6946 250 6920 250Q6868 250 6835 226Q6802 203 6802 167Q6802 133 6828 110Q6854 88 6892 88ZM7252 262Q7252 317 7271 366Q7290 415 7326 452Q7362 489 7413 511Q7464 533 7528 533Q7614 533 7674 496Q7735 459 7765 399L7634 359Q7617 388 7589 403Q7561 419 7527 419Q7498 419 7473 407Q7448 396 7429 375Q7411 355 7400 326Q7390 297 7390 262Q7390 227 7401 198Q7412 169 7430 148Q7449 127 7474 115Q7499 104 7527 104Q7563 104 7593 122Q7624 140 7636 166L7767 126Q7740 66 7678 28Q7616 -10 7529 -10Q7465 -10 7414 12Q7363 34 7327 71Q7291 109 7271 158Q7252 208 7252 262ZM8350 0L8207 0L8055 227L7983 156L7983 0L7849 0L7849 730L7983 730L7983 287L8193 523L8336 523L8141 301L8350 0Z" fill="#0560af" style=""></path></g></g></g></svg>