<svg width="474" height="534" viewBox="0 0 474 534" fill="none" xmlns="http://www.w3.org/2000/svg">
<path d="M234.758 0.014098C224.968 -0.211276 215.305 2.26928 206.828 7.18384L26.6787 111.392C18.5693 116.082 11.8345 122.829 7.1514 130.954C2.46828 139.08 0.00183166 148.298 0 157.682L0 366.215C0.0118212 375.589 2.483 384.795 7.16563 392.91C11.8483 401.024 18.5777 407.762 26.6787 412.447L206.828 516.74C214.936 521.431 224.133 523.901 233.494 523.901C242.856 523.901 252.053 521.431 260.161 516.74L440.34 412.447C448.436 407.759 455.161 401.02 459.839 392.905C464.517 384.791 466.985 375.586 466.994 366.215V157.679C466.994 148.298 464.531 139.083 459.852 130.959C455.173 122.834 448.444 116.087 440.34 111.395L260.161 7.18384C252.426 2.69779 243.691 0.231537 234.758 0.0116163V0.014098ZM234.179 117.882C239.095 117.995 243.903 119.345 248.162 121.808L347.262 179.134C351.721 181.714 355.423 185.426 357.996 189.895C360.57 194.364 361.925 199.434 361.925 204.594V319.3C361.915 324.451 360.556 329.509 357.983 333.968C355.41 338.426 351.713 342.129 347.262 344.705L248.162 402.083C243.704 404.661 238.649 406.018 233.503 406.018C228.357 406.018 223.302 404.661 218.845 402.083L119.739 344.705C115.289 342.129 111.593 338.426 109.02 333.967C106.447 329.509 105.088 324.451 105.079 319.3V204.594C105.078 199.433 106.432 194.364 109.006 189.894C111.579 185.424 115.281 181.712 119.739 179.131L218.845 121.808C223.502 119.115 228.807 117.757 234.182 117.882H234.179Z" fill="#6E2ADD"/>
<path d="M459.839 131.04L357.958 189.974C360.536 194.44 361.895 199.507 361.899 204.666V319.342C361.896 324.498 360.539 329.562 357.966 334.026C355.393 338.49 351.694 342.198 347.24 344.777L248.169 402.13C243.723 404.686 238.686 406.029 233.561 406.026V523.899C242.897 523.901 252.07 521.447 260.163 516.782L300.243 493.585L351.387 523.348C374.261 536.66 411.09 536.66 433.964 523.348L456.836 510.041C479.71 496.729 479.71 475.292 456.836 461.98L405.973 432.38L440.34 412.489C448.436 407.801 455.161 401.062 459.839 392.947C464.517 384.833 466.984 375.628 466.994 366.257V157.753C466.988 148.374 464.521 139.161 459.839 131.04Z" fill="#6E2ADD"/>
<path d="M7.20435 130.951L109.065 189.917C111.634 185.446 115.331 181.731 119.786 179.146L218.874 121.808C223.331 119.234 228.384 117.88 233.528 117.882C238.671 117.884 243.724 119.241 248.179 121.818L347.275 179.141C351.706 181.721 355.385 185.42 357.946 189.87L459.784 130.936C455.12 122.832 448.415 116.097 440.34 111.404L260.136 7.15393C252.037 2.47115 242.851 0.00481283 233.501 0.00219934C224.151 -0.000414137 214.965 2.46079 206.863 7.13904L26.7108 111.392C18.6089 116.085 11.8815 122.832 7.20435 130.956V130.951Z" fill="#6E2ADD"/>
</svg>
