<svg viewBox="0 0 243 104" fill="none" xmlns="http://www.w3.org/2000/svg"><path d="M45.7778 0.00274912C43.8688 -0.0411989 41.9845 0.442511 40.3316 1.40085L5.20236 21.7215C3.62102 22.636 2.30774 23.9516 1.39453 25.5361C0.481315 27.1206 0.000357174 28.9181 0 30.748L0 71.412C0.00230514 73.24 0.484187 75.0352 1.3973 76.6175C2.31041 78.1999 3.62265 79.5138 5.20236 80.4273L40.3316 100.764C41.9126 101.679 43.7059 102.161 45.5315 102.161C47.3571 102.161 49.1505 101.679 50.7314 100.764L85.8665 80.4273C87.4453 79.5131 88.7565 78.199 89.6688 76.6167C90.581 75.0344 91.0622 73.2395 91.064 71.412V30.7475C91.0639 28.9183 90.5836 27.1213 89.6713 25.537C88.759 23.9527 87.4468 22.637 85.8665 21.722L50.7314 1.40085C49.2232 0.52607 47.5199 0.0451497 45.7778 0.00226518V0.00274912ZM45.6651 22.987C46.6236 23.0091 47.5611 23.2724 48.3916 23.7526L67.7163 34.9311C68.5857 35.4344 69.3076 36.1581 69.8094 37.0296C70.3113 37.9011 70.5755 38.8896 70.5754 39.8959V62.2636C70.5736 63.268 70.3086 64.2544 69.8068 65.1238C69.305 65.9933 68.5841 66.7153 67.7163 67.2177L48.3916 78.4064C47.5224 78.909 46.5367 79.1736 45.5332 79.1736C44.5298 79.1736 43.544 78.909 42.6748 78.4064L23.3491 67.2177C22.4814 66.7153 21.7606 65.9932 21.2589 65.1237C20.7572 64.2543 20.4922 63.268 20.4905 62.2636V39.8959C20.4903 38.8896 20.7544 37.901 21.2562 37.0294C21.7579 36.1578 22.4798 35.434 23.3491 34.9306L42.6748 23.7526C43.5829 23.2275 44.6175 22.9627 45.6656 22.987H45.6651Z" fill="#5418b5"></path><path d="M89.6686 25.5527L69.8019 37.0449C70.3045 37.9157 70.5695 38.9038 70.5704 39.9098V62.2717C70.5697 63.2771 70.3052 64.2646 69.8035 65.1351C69.3017 66.0057 68.5804 66.7287 67.7118 67.2316L48.3929 78.4155C47.526 78.9138 46.5438 79.1758 45.5444 79.1752V102.16C47.365 102.161 49.1537 101.682 50.7318 100.773L58.5474 96.2491L68.5205 102.053C72.9809 104.649 80.1626 104.649 84.6231 102.053L89.0831 99.4581C93.5436 96.8623 93.5436 92.682 89.0831 90.0861L79.1647 84.3142L85.8663 80.4354C87.4451 79.5213 88.7564 78.2071 89.6686 76.6248C90.5809 75.0425 91.062 73.2476 91.0638 71.4201V30.7619C91.0628 28.9329 90.5816 27.1364 89.6686 25.5527V25.5527Z" fill="#5418b5"></path><path d="M1.40479 25.5355L21.2676 37.0339C21.7686 36.162 22.4896 35.4377 23.3582 34.9336L42.6805 23.7526C43.5496 23.2508 44.535 22.9868 45.538 22.9871C46.5409 22.9874 47.5262 23.2521 48.3949 23.7546L67.7186 34.9326C68.5827 35.4358 69.3002 36.1571 69.7996 37.0247L89.6581 25.5326C88.7485 23.9523 87.441 22.639 85.8664 21.724L50.7265 1.39508C49.1472 0.481936 47.3561 0.000998316 45.5328 0.000488687C43.7095 -2.09431e-05 41.9181 0.479915 40.3383 1.39217L5.20855 21.7215C3.62867 22.6367 2.31683 23.9524 1.40479 25.5364V25.5355Z" fill="#5418b5"></path><path d="M108.508 68.944C106.305 68.944 104.476 68.2753 103.021 66.938C101.605 65.5613 100.858 63.7913 100.779 61.628V43.574H106.266V59.681C106.345 61.0183 106.718 62.1 107.387 62.926C108.095 63.752 109.196 64.1847 110.691 64.224C112.068 64.224 113.287 63.8307 114.349 63.044C115.45 62.218 116.335 61.1167 117.004 59.74C117.673 58.324 118.007 56.731 118.007 54.961V43.574H123.494V68H118.479L118.007 61.982L118.302 63.044C117.83 64.1847 117.102 65.2073 116.119 66.112C115.175 66.9773 114.054 67.6657 112.756 68.177C111.458 68.6883 110.042 68.944 108.508 68.944ZM147.855 68.59C145.613 68.59 143.627 68.0983 141.896 67.115C140.205 66.1317 138.848 64.8927 137.825 63.398L138.474 61.687V68H132.987V22.334H138.415V49.179L138.238 47.114C139.221 45.7767 140.618 44.695 142.427 43.869C144.276 43.0037 146.321 42.571 148.563 42.571C150.766 42.571 152.772 43.102 154.581 44.164C156.39 45.226 157.826 46.7207 158.888 48.648C159.989 50.536 160.54 52.7977 160.54 55.433C160.54 58.1863 159.95 60.5463 158.77 62.513C157.629 64.4797 156.095 65.994 154.168 67.056C152.241 68.0787 150.136 68.59 147.855 68.59ZM146.734 63.929C148.307 63.929 149.723 63.5553 150.982 62.808C152.241 62.0607 153.224 61.0577 153.932 59.799C154.64 58.501 154.994 57.026 154.994 55.374C154.994 53.8007 154.62 52.3847 153.873 51.126C153.165 49.828 152.182 48.8053 150.923 48.058C149.704 47.3107 148.307 46.937 146.734 46.937C145.397 46.937 144.158 47.1927 143.017 47.704C141.876 48.2153 140.913 48.9233 140.126 49.828C139.339 50.6933 138.789 51.716 138.474 52.896V57.793C138.789 58.973 139.32 60.035 140.067 60.979C140.814 61.8837 141.758 62.6113 142.899 63.162C144.04 63.6733 145.318 63.929 146.734 63.929ZM179.289 68.59C176.496 68.59 174.097 68.0393 172.091 66.938C170.085 65.7973 168.531 64.2633 167.43 62.336C166.368 60.3693 165.837 58.1273 165.837 55.61C165.837 53.2107 166.446 51.0277 167.666 49.061C168.885 47.0943 170.517 45.521 172.563 44.341C174.608 43.161 176.889 42.571 179.407 42.571C182.632 42.571 185.307 43.515 187.431 45.403C189.555 47.291 190.99 49.887 191.738 53.191L171.619 60.271L170.321 57.026L186.841 51.008L185.661 51.775C185.189 50.477 184.402 49.356 183.301 48.412C182.199 47.4287 180.764 46.937 178.994 46.937C177.499 46.937 176.162 47.3107 174.982 48.058C173.802 48.766 172.877 49.7493 172.209 51.008C171.54 52.2667 171.206 53.7023 171.206 55.315C171.206 57.0063 171.56 58.501 172.268 59.799C172.976 61.0577 173.939 62.0607 175.159 62.808C176.417 63.516 177.833 63.87 179.407 63.87C180.469 63.87 181.491 63.6733 182.475 63.28C183.497 62.8867 184.441 62.3753 185.307 61.746L187.844 65.817C186.624 66.643 185.248 67.3117 183.714 67.823C182.219 68.3343 180.744 68.59 179.289 68.59Z" fill="#5418b5"></path><path d="M212.399 60.271C212.399 63.7323 211.73 66.6823 210.393 69.121C209.095 71.5597 207.305 73.4083 205.024 74.667C202.743 75.965 200.127 76.673 197.177 76.791V71.245C199.93 71.0877 202.192 70.1043 203.962 68.295C205.771 66.525 206.676 63.7913 206.676 60.094V25.343H212.399V60.271ZM230.172 68.472C228.441 68.472 226.75 68.177 225.098 67.587C223.485 66.9577 222.148 66.0333 221.086 64.814L223.387 61.628C224.409 62.6113 225.452 63.3587 226.514 63.87C227.615 64.342 228.697 64.578 229.759 64.578C230.545 64.578 231.273 64.4797 231.942 64.283C232.61 64.0863 233.141 63.7717 233.535 63.339C233.967 62.867 234.184 62.2377 234.184 61.451C234.184 60.5857 233.889 59.8973 233.299 59.386C232.748 58.8747 232.02 58.4617 231.116 58.147C230.25 57.8323 229.326 57.5373 228.343 57.262C226.337 56.5933 224.803 55.669 223.741 54.489C222.679 53.309 222.148 51.8733 222.148 50.182C222.148 48.884 222.462 47.6843 223.092 46.583C223.76 45.4423 224.724 44.518 225.983 43.81C227.281 43.102 228.874 42.748 230.762 42.748C232.453 42.748 233.967 42.9643 235.305 43.397C236.642 43.7903 237.901 44.459 239.081 45.403L236.898 48.825C236.19 48.0777 235.344 47.527 234.361 47.173C233.377 46.819 232.492 46.6223 231.706 46.583C231.037 46.5437 230.388 46.642 229.759 46.878C229.169 47.114 228.677 47.4483 228.284 47.881C227.89 48.3137 227.694 48.825 227.694 49.415C227.694 50.241 227.969 50.9097 228.52 51.421C229.07 51.9323 229.778 52.3453 230.644 52.66C231.548 52.9353 232.433 53.2303 233.299 53.545C234.518 53.899 235.6 54.371 236.544 54.961C237.488 55.551 238.235 56.2787 238.786 57.144C239.376 58.0093 239.671 59.091 239.671 60.389C239.671 61.8443 239.317 63.2013 238.609 64.46C237.94 65.6793 236.898 66.6627 235.482 67.41C234.105 68.118 232.335 68.472 230.172 68.472Z" fill="#9C9C9C"></path></svg>